<svg width="438" height="480" viewBox="0 0 438 480" fill="none" xmlns="http://www.w3.org/2000/svg">
<g clip-path="url(#clip0_405_607)">
<path fill-rule="evenodd" clip-rule="evenodd" d="M29.4715 -0.452829C31.5874 -0.452829 33.7034 -0.452829 35.8193 -0.452829C60.2541 13.959 84.7386 28.4496 109.273 43.0189C109.548 43.6075 109.85 44.2112 110.18 44.8302C115.921 46.164 119.246 49.1828 120.155 53.8868C121.697 54.309 123.058 54.309 124.235 53.8868C125.673 54.6799 126.58 55.8875 126.956 57.5094C128.625 56.3021 129.078 56.453 128.316 57.9623C130.711 59.963 133.281 60.4158 136.024 59.3208C136.272 60.7709 136.725 62.1294 137.385 63.3962C139.958 63.8495 142.679 64.7552 145.546 66.1132C146.673 67.1588 147.58 68.3663 148.267 69.7359C149.991 69.9163 151.352 70.6709 152.347 72C152.649 71.6981 152.952 71.3962 153.254 71.0943C155.998 74.0911 159.474 75.4496 163.683 75.1698C165.785 76.9745 168.202 78.0312 170.937 78.3396C170.683 80.9554 171.892 82.3138 174.565 82.4151C172.931 82.7025 172.63 83.3063 173.658 84.2264C175.907 85.0959 178.174 85.8506 180.459 86.4906C180.761 86.1887 181.064 85.8868 181.366 85.5849C182.704 89.1845 185.273 91.2978 189.074 91.9245C189.527 92.8302 189.981 93.7359 190.434 94.6415C192.298 94.3263 194.111 94.9304 195.875 96.4528C197.534 96.394 199.196 96.0924 200.863 95.5472C226.963 109.217 252.657 123.708 277.944 139.019C279.539 140.81 281.049 142.772 282.478 144.906C282.176 145.207 281.873 145.51 281.571 145.811C282.634 146.191 283.541 146.794 284.291 147.623C286.824 147.013 289.243 147.616 291.546 149.434C291.752 150.462 292.054 151.519 292.453 152.604C293.662 151.397 294.871 151.397 296.08 152.604C296.969 153.945 298.027 155.153 299.254 156.226C300.227 155.52 301.285 155.671 302.428 156.679C302.126 156.981 301.823 157.283 301.521 157.585C305.132 158.211 308.156 159.871 310.59 162.566C312.383 163.138 314.348 163.138 316.484 162.566C317.414 165.911 319.531 168.024 322.832 168.906C324.756 172.788 326.57 176.712 328.273 180.679C328.426 280.063 328.879 379.384 329.633 478.642C329.633 478.943 329.633 479.246 329.633 479.547C328.121 479.547 326.611 479.547 325.099 479.547C323.514 478.38 323.212 477.021 324.192 475.472C322.309 475.298 320.495 474.845 318.751 474.113C317.716 473.275 317.716 472.52 318.751 471.849C313.305 470.986 308.923 468.42 305.602 464.151C304.951 465.012 304.195 465.163 303.335 464.604C300.52 460.857 297.346 459.196 293.813 459.623C291.173 455.479 287.395 453.215 282.478 452.83C281.96 451.739 281.355 450.682 280.664 449.66C277.754 449.013 275.034 447.956 272.503 446.491C272.805 446.189 273.107 445.886 273.409 445.585C269.218 444.398 265.591 442.286 262.527 439.245C260.545 438.06 258.58 437.909 256.633 438.792C255.252 434.703 252.381 432.741 248.018 432.906C246.356 431.849 244.996 430.49 243.937 428.83C242.267 430.944 240.302 431.247 238.043 429.736C237.942 429.177 237.64 428.724 237.136 428.377C238.345 427.773 239.555 427.17 240.763 426.566C236.966 424.699 233.036 423.189 228.975 422.038C230.021 421.21 229.87 420.456 228.521 419.774C228.219 420.378 227.916 420.981 227.614 421.585C227.457 418.532 226.096 417.626 223.534 418.868C222.069 418.276 220.557 417.823 218.999 417.509C219.473 417.001 219.775 416.397 219.906 415.698C218.968 414.544 217.909 413.488 216.732 412.528C214.895 412.998 213.081 413.301 211.291 413.434C210.457 411.503 209.399 409.692 208.117 408C205.6 407.467 203.484 406.259 201.77 404.377C201.238 404.567 200.785 404.869 200.409 405.283C199.805 403.472 198.596 402.264 196.782 401.66C196.48 402.566 196.177 403.472 195.875 404.377C194.858 402.639 194.101 400.827 193.608 398.943C191.948 398.443 190.437 398.443 189.074 398.943C187.989 398.63 187.989 398.177 189.074 397.585C187.562 397.283 186.052 396.981 184.54 396.679C183.853 395.31 182.947 394.102 181.819 393.057C178.899 392.408 176.179 391.351 173.658 389.887C172.854 389.14 172.552 388.234 172.751 387.17C171.208 386.748 169.848 386.748 168.67 387.17C166.364 383.109 163.039 381.298 158.695 381.736C157.618 380.773 157.164 379.565 157.335 378.113C154.953 378.649 152.534 378.951 150.08 379.019C110.053 356.464 70.1518 333.672 30.3784 310.642C29.2108 309.365 28.1528 308.006 27.2044 306.566C26.751 240.151 26.5999 173.736 26.751 107.321C27.6579 107.925 28.5647 108.528 29.4715 109.132C29.4053 110.515 30.0099 111.421 31.2852 111.849C32.655 113.607 34.4687 114.06 36.7262 113.208C38.9181 111.735 41.1852 110.376 43.5274 109.132C44.132 107.321 44.132 105.509 43.5274 103.698C40.1597 97.4219 36.6836 91.2335 33.0989 85.1321C36.3024 82.2398 39.7786 79.6738 43.5274 77.434C44.159 73.5239 43.101 72.9202 40.3535 75.6226C37.9675 74.1624 35.5493 72.653 33.0989 71.0943C33.6312 69.9472 33.6312 69.0416 33.0989 68.3774C31.1382 69.7538 29.0223 70.6594 26.751 71.0943C26.5999 48.149 26.751 25.2055 27.2044 2.26415C28.1521 1.47311 28.9077 0.567453 29.4715 -0.452829Z" fill="#EFF1FB"/>
<path fill-rule="evenodd" clip-rule="evenodd" d="M26.7518 71.0943C29.0231 70.6594 31.139 69.7538 33.0997 68.3774C33.632 69.0416 33.632 69.9472 33.0997 71.0943C28.1885 72.8791 23.3521 74.5395 18.5904 76.0755C14.0749 69.6648 10.1453 62.8724 6.80153 55.6981C5.01761 55.4813 3.35508 55.7832 1.81396 56.6038C1.42592 59.1593 1.87934 61.5744 3.1742 63.8491C1.81404 62.83 0.604928 61.6224 -0.453125 60.2264C-0.453125 59.0189 -0.453125 57.8113 -0.453125 56.6038C2.94148 52.6713 7.17336 50.709 12.2425 50.717C17.3096 57.0019 21.6927 63.7944 25.3916 71.0943C26.0173 72.2158 26.4707 72.2158 26.7518 71.0943ZM8.6152 53.8868C8.6152 55.0943 8.01064 55.6981 6.80153 55.6981C6.80153 54.4906 7.40609 53.8868 8.6152 53.8868ZM8.6152 53.8868C9.39534 51.6497 10.6044 51.4987 12.2425 53.434C11.0698 53.8777 9.86064 54.0287 8.6152 53.8868Z" fill="#4965CD"/>
<path fill-rule="evenodd" clip-rule="evenodd" d="M6.80037 55.6981C10.1441 62.8724 14.0737 69.6648 18.5892 76.0755C23.351 74.5395 28.1874 72.8791 33.0985 71.0943C35.549 72.653 37.9672 74.1623 40.3532 75.6226C39.7102 76.4414 38.8034 76.7432 37.6327 76.5283C37.7748 77.7721 37.6236 78.9797 37.1793 80.1509C33.0706 82.7147 29.2921 85.5826 25.8438 88.7547C29.1997 94.7013 32.6758 100.588 36.2724 106.415C38.0103 111.723 36.3478 113.534 31.2848 111.849C30.0096 111.421 29.405 110.515 29.4712 109.132C26.8169 103.379 23.794 97.7941 20.4029 92.3774C19.1938 91.7733 17.9846 91.7733 16.7755 92.3774C13.9093 94.2901 10.8866 95.9511 7.7072 97.3585C3.7906 95.5653 1.67466 92.5467 1.35938 88.3019C5.45458 85.8057 9.38421 83.0887 13.1482 80.1509C10.2552 74.3569 6.93017 68.9229 3.17304 63.8491C1.87817 61.5744 1.42476 59.1593 1.81279 56.6038C3.35392 55.7832 5.01645 55.4813 6.80037 55.6981Z" fill="#C7D1F2"/>
<path opacity="0.569" fill-rule="evenodd" clip-rule="evenodd" d="M3.17304 63.8491C6.93017 68.9229 10.2552 74.3569 13.1482 80.1509C9.38421 83.0887 5.45458 85.8057 1.35938 88.3019C1.68477 86.6074 2.59161 85.2489 4.07987 84.2264C6.61589 83.1101 9.03411 81.7516 11.3345 80.1509C7.78472 75.1061 5.06422 69.6722 3.17304 63.8491Z" fill="#4D63B3"/>
<path fill-rule="evenodd" clip-rule="evenodd" d="M31.2857 111.849C36.3487 113.534 38.0112 111.723 36.2733 106.415C32.6767 100.588 29.2006 94.7013 25.8447 88.7547C29.293 85.5826 33.0715 82.7147 37.1801 80.1509C37.6245 78.9797 37.7756 77.7721 37.6335 76.5283C38.8043 76.7432 39.7111 76.4413 40.354 75.6226C43.1016 72.9201 44.1596 73.5239 43.528 77.434C39.7791 79.6737 36.303 82.2397 33.0994 85.1321C36.6841 91.2335 40.1603 97.4219 43.528 103.698C44.1325 105.509 44.1325 107.321 43.528 109.132C41.1857 110.376 38.9186 111.735 36.7267 113.208C34.4692 114.06 32.6556 113.607 31.2857 111.849Z" fill="#4666D5"/>
<path opacity="0.998" fill-rule="evenodd" clip-rule="evenodd" d="M109.273 43.0189C111.451 43.5159 113.567 44.2707 115.621 45.283C143.21 61.7728 171.019 77.7729 199.05 93.283C199.849 93.9242 200.453 94.6795 200.864 95.5472C199.197 96.0924 197.535 96.394 195.876 96.4528C194.112 94.9304 192.298 94.3263 190.435 94.6415C189.982 93.7358 189.528 92.8302 189.075 91.9245C185.274 91.2978 182.704 89.1845 181.367 85.5849C181.065 85.8868 180.762 86.1887 180.46 86.4906C178.175 85.8506 175.907 85.0958 173.659 84.2264C172.63 83.3063 172.932 82.7025 174.565 82.4151C171.893 82.3138 170.684 80.9554 170.938 78.3396C168.203 78.0312 165.785 76.9745 163.683 75.1698C159.475 75.4496 155.999 74.0911 153.255 71.0943C152.953 71.3962 152.65 71.6981 152.348 72C151.352 70.6709 149.992 69.9163 148.267 69.7358C147.581 68.3663 146.674 67.1588 145.547 66.1132C142.679 64.7552 139.959 63.8495 137.385 63.3962C136.726 62.1294 136.273 60.7709 136.025 59.3208C133.282 60.4158 130.712 59.963 128.317 57.9623C129.079 56.453 128.625 56.3021 126.957 57.5094C126.58 55.8875 125.674 54.6799 124.236 53.8868C123.058 54.309 121.698 54.309 120.155 53.8868C119.247 49.1828 115.921 46.164 110.18 44.8302C109.851 44.2112 109.549 43.6075 109.273 43.0189Z" fill="#DCE1F6"/>
<path opacity="0.792" fill-rule="evenodd" clip-rule="evenodd" d="M-0.453125 88.3019C0.15143 88.3019 0.755985 88.3019 1.36054 88.3019C1.67583 92.5467 3.79177 95.5653 7.70837 97.3585C10.8877 95.9511 13.9105 94.2901 16.7767 92.3774C17.9858 91.7733 19.1949 91.7733 20.404 92.3774C23.7952 97.7941 26.818 103.379 29.4723 109.132C28.5655 108.528 27.6587 107.925 26.7518 107.321C24.701 102.774 22.2828 98.3973 19.4972 94.1887C16.4842 94.4966 13.7637 95.7039 11.3357 97.8113C9.21978 98.4154 7.10381 98.4154 4.98787 97.8113C2.48469 96.0136 0.671027 93.7494 -0.453125 91.0189C-0.453125 90.1132 -0.453125 89.2075 -0.453125 88.3019Z" fill="#5E72C2"/>
<path fill-rule="evenodd" clip-rule="evenodd" d="M437.547 272.151C437.547 274.264 437.547 276.378 437.547 278.491C434.654 282.223 431.027 283.279 426.665 281.66C397.422 265.625 368.252 249.473 339.155 233.208C338.982 228.151 338.529 223.17 337.795 218.264C338.682 202.748 338.984 187.352 338.702 172.075C337.43 167.476 335.011 163.551 331.447 160.302C324.472 156.521 317.822 152.295 311.497 147.623C323.742 131.215 336.136 114.762 348.677 98.2642C354.147 94.2865 359.135 94.8906 363.64 100.075C388.142 157.283 412.777 214.642 437.547 272.151Z" fill="#DAE0F6"/>
<path fill-rule="evenodd" clip-rule="evenodd" d="M134.665 164.377C130.644 167.953 128.527 172.481 128.317 177.962C127.702 196.591 127.098 215.307 126.503 234.113C120.809 236.791 115.67 240.112 111.087 244.075C110.528 243.975 110.074 243.673 109.727 243.17C109.274 208.756 109.122 174.341 109.274 139.925C117.069 135.626 124.777 131.098 132.398 126.34C132.259 139.353 133.014 152.032 134.665 164.377Z" fill="#3F61D3"/>
<path fill-rule="evenodd" clip-rule="evenodd" d="M100.205 134.491C102.716 135.339 105.135 136.396 107.46 137.66C108.259 138.302 108.863 139.057 109.274 139.925C109.122 174.341 109.274 208.756 109.727 243.17C110.074 243.673 110.528 243.975 111.087 244.075C114.043 245.229 116.764 246.738 119.249 248.604C119.549 255.574 119.246 262.517 118.342 269.434C115.475 268.154 112.755 266.645 110.18 264.906C109.827 274.176 108.92 283.233 107.46 292.075C102.372 288.583 97.2326 285.263 92.0437 282.113C91.7871 281.399 91.3337 280.795 90.6835 280.302C90.5314 270.929 90.078 261.57 89.3232 252.226C85.9288 249.928 82.3014 248.117 78.4412 246.792C76.4698 246.566 74.9584 245.66 73.9071 244.075C72.9335 242.821 71.7244 241.765 70.2797 240.906C65.1975 238.061 60.0587 235.495 54.8636 233.208C52.6062 233.442 51.0948 232.536 50.3294 230.491C49.7672 223.009 49.9183 215.462 50.7828 207.849C53.0158 203.093 54.9806 198.263 56.6773 193.358C65.9516 171.518 75.9268 150.083 86.6027 129.057C87.1626 128.956 87.616 128.654 87.963 128.151C91.7744 130.884 95.8551 132.997 100.205 134.491Z" fill="#CBD4F3"/>
<path fill-rule="evenodd" clip-rule="evenodd" d="M350.491 132.679C356.324 134.573 361.765 137.29 366.814 140.83C368.023 162.566 368.023 184.302 366.814 206.038C361.58 203.491 356.441 200.774 351.398 197.887C350.738 194.254 350.134 190.632 349.584 187.019C350.48 168.947 350.782 150.834 350.491 132.679Z" fill="#EFF1FB"/>
<path fill-rule="evenodd" clip-rule="evenodd" d="M189.074 158.038C191.493 161.056 194.213 163.773 197.236 166.189C199.443 169.704 201.861 173.025 204.49 176.151C206.804 181.289 208.92 186.421 210.838 191.547C212.17 196.275 212.775 201.106 212.652 206.038C205.728 209.496 199.077 213.42 192.702 217.811C191.205 210.897 189.09 203.953 186.354 196.981C183.776 190.009 179.846 183.971 174.565 178.868C170.269 173.077 164.828 168.549 158.242 165.283C157.932 164.524 157.328 164.222 156.428 164.377C151.629 162.476 146.792 160.967 141.919 159.849C149.341 155.178 157.201 151.253 165.497 148.075C174.186 149.653 182.045 152.974 189.074 158.038Z" fill="#FAFBFD"/>
<path fill-rule="evenodd" clip-rule="evenodd" d="M141.92 159.849C146.793 160.967 151.63 162.476 156.429 164.377C156.375 164.869 156.073 165.171 155.522 165.283C151.572 163.616 147.491 162.408 143.28 161.66C140.157 161.946 137.286 162.851 134.665 164.377C136.506 161.948 138.924 160.439 141.92 159.849Z" fill="#8197E2"/>
<path fill-rule="evenodd" clip-rule="evenodd" d="M189.074 158.038C192.702 159.849 195.422 162.566 197.236 166.189C194.213 163.773 191.493 161.056 189.074 158.038Z" fill="#9AACE8"/>
<path fill-rule="evenodd" clip-rule="evenodd" d="M156.428 164.377C157.328 164.222 157.932 164.524 158.242 165.283C157.119 165.564 157.119 166.017 158.242 166.642C164.085 170.216 169.526 174.292 174.565 178.868C179.846 183.971 183.776 190.009 186.354 196.981C185.861 197.035 185.559 197.337 185.447 197.887C188.018 203.327 189.378 209.064 189.528 215.094C189.981 238.036 190.132 260.979 189.981 283.925C190.132 293.59 189.981 303.25 189.528 312.906C188.361 317.788 186.094 322.015 182.726 325.585C182.22 326.753 181.313 327.508 180.006 327.849C172.515 328.785 165.562 327.276 159.149 323.321C143.388 313.77 133.413 300.034 129.223 282.113C128.751 278.508 128.449 274.885 128.316 271.245C128.316 240.151 128.316 209.056 128.316 177.962C128.527 172.481 130.643 167.953 134.664 164.377C137.285 162.851 140.156 161.946 143.279 161.66C147.49 162.408 151.571 163.616 155.521 165.283C156.072 165.171 156.374 164.869 156.428 164.377Z" fill="#CBD4F3"/>
<path fill-rule="evenodd" clip-rule="evenodd" d="M158.242 165.283C164.829 168.549 170.27 173.077 174.565 178.868C169.526 174.292 164.085 170.216 158.242 166.642C157.12 166.017 157.12 165.564 158.242 165.283Z" fill="#8B9FE4"/>
<path fill-rule="evenodd" clip-rule="evenodd" d="M89.3234 174.34C89.6214 185.972 89.3192 197.444 88.4165 208.755C81.8878 211.386 75.8422 214.707 70.2799 218.717C69.7141 218.339 69.4118 217.735 69.373 216.906C75.3706 202.219 82.0206 188.03 89.3234 174.34Z" fill="#4062D3"/>
<path fill-rule="evenodd" clip-rule="evenodd" d="M204.49 176.151C208.186 180.57 210.302 185.701 210.838 191.547C208.92 186.421 206.804 181.289 204.49 176.151Z" fill="#A1B1E9"/>
<path fill-rule="evenodd" clip-rule="evenodd" d="M151.894 186.113C161.175 187.353 167.069 192.485 169.577 201.509C170.182 233.812 170.182 266.113 169.577 298.415C166.241 303.638 162.16 304.242 157.335 300.226C152.111 296.434 149.239 291.303 148.72 284.83C148.115 254.339 148.115 223.849 148.72 193.358C148.723 190.416 149.781 188.001 151.894 186.113Z" fill="#3C5FD3"/>
<path fill-rule="evenodd" clip-rule="evenodd" d="M350.491 203.321C356.042 206.451 361.786 209.168 367.721 211.472C367.721 217.811 367.721 224.151 367.721 230.491C362.439 227.36 356.846 224.643 350.944 222.34C350.491 216.007 350.34 209.668 350.491 203.321Z" fill="#EEF1FB"/>
<path fill-rule="evenodd" clip-rule="evenodd" d="M212.652 206.038C213.555 218.557 213.857 231.236 213.559 244.075C212.35 250.717 212.35 257.359 213.559 264C209.114 274.385 204.43 284.649 199.503 294.792C198.777 302.109 198.929 309.355 199.956 316.528C194.324 319.793 188.58 322.813 182.727 325.585C186.095 322.015 188.362 317.788 189.528 312.906C189.981 303.25 190.133 293.59 189.981 283.925C190.301 261.836 191.208 239.798 192.702 217.811C199.078 213.42 205.728 209.496 212.652 206.038Z" fill="#3C60D3"/>
<path fill-rule="evenodd" clip-rule="evenodd" d="M56.6769 193.358C54.9803 198.263 53.0155 203.093 50.7825 207.849C49.918 215.462 49.7669 223.009 50.3291 230.491C46.2777 217.215 48.3936 204.838 56.6769 193.358Z" fill="#92A5E6"/>
<path fill-rule="evenodd" clip-rule="evenodd" d="M88.4159 208.755C89.5942 215.947 89.5942 223.193 88.4159 230.491C87.1919 229.177 85.6805 228.573 83.8818 228.679C79.1866 225.58 74.6524 222.259 70.2793 218.717C75.8416 214.707 81.8872 211.386 88.4159 208.755Z" fill="#F4F5FC"/>
<path fill-rule="evenodd" clip-rule="evenodd" d="M128.317 177.962C128.317 209.056 128.317 240.151 128.317 271.245C127.415 262.654 127.113 253.9 127.41 244.981C127.697 241.176 127.394 237.553 126.503 234.113C127.098 215.307 127.702 196.591 128.317 177.962Z" fill="#5876D9"/>
<path fill-rule="evenodd" clip-rule="evenodd" d="M282.478 213.283C283.086 247.761 283.69 282.327 284.292 316.981C283.432 317.419 282.525 317.569 281.571 317.434C282.473 282.782 282.775 248.066 282.478 213.283Z" fill="#6D87DE"/>
<path fill-rule="evenodd" clip-rule="evenodd" d="M282.478 213.283C282.775 248.066 282.473 282.782 281.571 317.434C274.104 321.003 267.151 325.23 260.714 330.113C260.155 330.013 259.701 329.711 259.354 329.208C258.901 294.793 258.749 260.378 258.901 225.962C267.161 221.551 275.019 217.324 282.478 213.283Z" fill="#3E61D3"/>
<path fill-rule="evenodd" clip-rule="evenodd" d="M258.9 225.962C258.749 260.378 258.9 294.793 259.354 329.208C259.701 329.711 260.155 330.013 260.714 330.113C263.67 331.267 266.391 332.776 268.876 334.642C269.176 341.611 268.873 348.554 267.969 355.472C265.394 353.733 262.674 352.223 259.807 350.943C258.901 360.283 258.599 369.641 258.9 379.019C254.327 376.741 250.095 374.024 246.205 370.868C244.31 369.156 242.194 367.646 239.857 366.34C239.542 356.65 238.635 347.291 237.136 338.264C224.289 331.701 211.896 324.456 199.956 316.528C198.929 309.355 198.777 302.109 199.503 294.792C204.43 284.649 209.114 274.385 213.559 264C215.596 260.82 217.561 257.499 219.453 254.038C220.19 252.284 220.644 250.473 220.813 248.604C225.681 236.011 231.424 223.784 238.043 211.925C244.708 208.909 245.01 209.361 238.95 213.283C245.659 217.531 252.309 221.758 258.9 225.962Z" fill="#CBD4F3"/>
<path fill-rule="evenodd" clip-rule="evenodd" d="M89.3228 174.34C90.3772 193.204 90.5283 212.222 89.7762 231.396C89.474 231.698 89.1717 232 88.8694 232.302C87.0419 231.218 85.3793 230.011 83.8818 228.679C85.6805 228.573 87.192 229.177 88.416 230.491C89.5942 223.193 89.5942 215.947 88.416 208.755C89.3187 197.444 89.6209 185.972 89.3228 174.34Z" fill="#8AA0E4"/>
<path fill-rule="evenodd" clip-rule="evenodd" d="M186.354 196.981C189.09 203.953 191.206 210.897 192.702 217.811C191.208 239.798 190.302 261.836 189.981 283.925C190.133 260.979 189.981 238.036 189.528 215.094C189.378 209.064 188.018 203.327 185.447 197.887C185.56 197.337 185.862 197.035 186.354 196.981Z" fill="#6D87DD"/>
<path fill-rule="evenodd" clip-rule="evenodd" d="M126.503 234.113C127.394 237.553 127.697 241.176 127.41 244.981C124.711 246.149 121.991 247.357 119.248 248.604C116.764 246.738 114.043 245.229 111.087 244.075C115.67 240.112 120.809 236.791 126.503 234.113Z" fill="#F5F6FC"/>
<path fill-rule="evenodd" clip-rule="evenodd" d="M54.8633 233.208C60.0584 235.495 65.1972 238.061 70.2794 240.906C71.7241 241.765 72.9332 242.821 73.9068 244.075C67.1087 241.137 60.7609 237.514 54.8633 233.208Z" fill="#8A9EE4"/>
<path fill-rule="evenodd" clip-rule="evenodd" d="M127.41 244.981C127.114 253.9 127.416 262.654 128.317 271.245C128.45 274.885 128.751 278.508 129.224 282.113C122.376 285.321 115.725 288.944 109.274 292.981C108.654 292.652 108.049 292.351 107.46 292.075C108.92 283.233 109.827 274.176 110.18 264.906C112.755 266.645 115.475 268.154 118.342 269.434C119.246 262.517 119.549 255.574 119.249 248.604C121.991 247.357 124.712 246.149 127.41 244.981Z" fill="#3F61D3"/>
<path fill-rule="evenodd" clip-rule="evenodd" d="M213.559 244.075C213.408 250.121 213.559 256.159 214.012 262.189C215.829 257.352 218.096 252.824 220.814 248.604C220.644 250.473 220.191 252.284 219.453 254.038C217.561 257.499 215.597 260.82 213.559 264C212.35 257.359 212.35 250.717 213.559 244.075Z" fill="#95A7E7"/>
<path fill-rule="evenodd" clip-rule="evenodd" d="M78.4414 246.792C82.3016 248.117 85.9289 249.928 89.3234 252.226C90.0782 261.57 90.5316 270.929 90.6836 280.302C91.3338 280.795 91.7873 281.399 92.0439 282.113C90.6679 282.103 89.6099 281.5 88.87 280.302C88.5677 271.245 88.2654 262.189 87.9631 253.132C84.629 251.143 81.4551 249.029 78.4414 246.792Z" fill="#7C93E1"/>
<path fill-rule="evenodd" clip-rule="evenodd" d="M238.951 294.792C238.649 294.792 238.346 294.792 238.044 294.792C232.307 297.354 226.866 300.372 221.721 303.849C221.051 303.73 220.446 303.882 219.907 304.302C219.517 305.135 219.214 305.889 219 306.566C217.99 305.458 217.839 304.251 218.547 302.943C225.359 288.895 232.009 274.706 238.497 260.377C238.951 271.845 239.102 283.317 238.951 294.792Z" fill="#4062D3"/>
<path fill-rule="evenodd" clip-rule="evenodd" d="M238.043 294.792C238.194 302.044 238.043 309.289 237.59 316.528C236.981 315.847 236.226 315.545 235.323 315.623C231.02 312.514 226.486 309.645 221.72 307.019C220.647 305.982 220.647 304.925 221.72 303.849C226.866 300.372 232.307 297.354 238.043 294.792Z" fill="#F7F8FD"/>
<path fill-rule="evenodd" clip-rule="evenodd" d="M238.044 294.792C238.346 294.792 238.649 294.792 238.951 294.792C239.101 302.647 238.951 310.497 238.497 318.34C237.121 317.739 236.062 316.834 235.323 315.623C236.226 315.545 236.982 315.847 237.59 316.528C238.044 309.289 238.194 302.044 238.044 294.792Z" fill="#899EE4"/>
<path fill-rule="evenodd" clip-rule="evenodd" d="M258.901 379.019C258.6 369.641 258.902 360.283 259.808 350.943C262.674 352.223 265.395 353.733 267.969 355.472C268.873 348.554 269.176 341.611 268.876 334.641C276.863 330.805 284.42 326.277 291.547 321.057C292.603 328.585 292.755 336.133 292 343.698C288.996 345.48 285.973 347.292 282.932 349.132C282.779 354.891 282.325 360.628 281.572 366.34C273.991 370.569 266.435 374.796 258.901 379.019Z" fill="#3E61D3"/>
<path opacity="0.721" fill-rule="evenodd" clip-rule="evenodd" d="M277.944 139.019C292.591 147.173 307.101 155.476 321.472 163.925C326.338 167.756 329.209 172.738 330.087 178.868C330.843 278.944 330.691 378.869 329.634 478.641C328.88 379.384 328.427 280.063 328.274 180.679C326.57 176.712 324.757 172.788 322.833 168.906C319.532 168.024 317.415 165.911 316.485 162.566C314.349 163.138 312.384 163.138 310.59 162.566C308.156 159.871 305.133 158.211 301.522 157.585C301.824 157.283 302.127 156.981 302.429 156.679C301.286 155.671 300.228 155.52 299.255 156.226C298.028 155.153 296.97 153.945 296.081 152.604C294.872 151.397 293.662 151.397 292.454 152.604C292.055 151.519 291.753 150.462 291.547 149.434C289.243 147.616 286.825 147.013 284.292 147.623C283.541 146.794 282.634 146.191 281.572 145.811C281.874 145.51 282.177 145.207 282.478 144.906C281.05 142.772 279.539 140.81 277.944 139.019Z" fill="#CBD3F0"/>
<path fill-rule="evenodd" clip-rule="evenodd" d="M237.137 338.264C238.636 347.291 239.543 356.65 239.857 366.34C242.194 367.646 244.31 369.156 246.205 370.868C243.477 370.035 240.908 368.827 238.497 367.245C238.325 357.516 237.871 347.855 237.137 338.264Z" fill="#869CE3"/>
<path fill-rule="evenodd" clip-rule="evenodd" d="M238.044 429.736C208.261 413.509 178.94 396.603 150.081 379.019C152.535 378.951 154.953 378.649 157.336 378.113C157.165 379.565 157.619 380.773 158.696 381.736C163.04 381.298 166.365 383.109 168.671 387.17C169.849 386.748 171.209 386.748 172.752 387.17C172.553 388.234 172.855 389.14 173.659 389.887C176.18 391.351 178.9 392.408 181.82 393.057C182.947 394.102 183.854 395.31 184.541 396.679C186.052 396.981 187.563 397.283 189.075 397.585C187.99 398.177 187.99 398.63 189.075 398.943C190.438 398.443 191.949 398.443 193.609 398.943C194.102 400.827 194.859 402.639 195.876 404.377C196.178 403.472 196.481 402.566 196.783 401.66C198.597 402.264 199.805 403.472 200.41 405.283C200.786 404.869 201.239 404.567 201.77 404.377C203.484 406.259 205.601 407.467 208.118 408C209.4 409.692 210.458 411.503 211.292 413.434C213.082 413.301 214.896 412.998 216.733 412.528C217.91 413.488 218.969 414.544 219.907 415.698C219.776 416.397 219.474 417.001 219 417.509C220.558 417.823 222.07 418.276 223.534 418.868C226.097 417.626 227.457 418.532 227.615 421.585C227.917 420.981 228.22 420.378 228.522 419.774C229.871 420.456 230.022 421.21 228.975 422.038C233.037 423.189 236.966 424.699 240.764 426.566C239.555 427.17 238.346 427.773 237.137 428.377C237.641 428.724 237.943 429.177 238.044 429.736Z" fill="#DFE4F6"/>
<path opacity="0.997" fill-rule="evenodd" clip-rule="evenodd" d="M325.1 479.547C324.193 479.547 323.286 479.547 322.379 479.547C294.223 463.215 266.111 446.611 238.044 429.736C240.303 431.247 242.268 430.944 243.938 428.83C244.997 430.49 246.357 431.849 248.019 432.906C252.382 432.741 255.253 434.703 256.634 438.792C258.581 437.909 260.546 438.06 262.528 439.245C265.592 442.286 269.219 444.399 273.41 445.585C273.108 445.887 272.806 446.189 272.504 446.491C275.035 447.956 277.755 449.013 280.665 449.66C281.356 450.682 281.961 451.739 282.479 452.83C287.396 453.215 291.174 455.479 293.814 459.623C297.347 459.196 300.521 460.857 303.336 464.604C304.196 465.163 304.952 465.012 305.603 464.151C308.924 468.42 313.306 470.986 318.752 471.849C317.717 472.52 317.717 473.275 318.752 474.113C320.496 474.845 322.31 475.298 324.193 475.472C323.213 477.021 323.515 478.38 325.1 479.547Z" fill="#DFE4F7"/>
<path fill-rule="evenodd" clip-rule="evenodd" d="M54.5002 392.773C70.3705 408.638 100.811 416.793 122.49 410.988C144.17 405.183 148.879 387.615 133.009 371.75C117.139 355.885 86.6986 347.731 65.019 353.536C43.3393 359.341 38.6299 376.909 54.5002 392.773ZM102.375 390.88C103.962 392.466 107.885 393.046 111.137 392.176C114.389 391.305 115.739 389.313 114.152 387.726C112.565 386.14 108.642 385.56 105.39 386.43C102.138 387.301 100.788 389.293 102.375 390.88ZM93.8957 374.94C90.6437 375.811 86.721 375.231 85.134 373.644C83.5469 372.058 84.8966 370.066 88.1486 369.195C91.4005 368.324 95.3233 368.904 96.9103 370.491C98.4973 372.077 97.1476 374.069 93.8957 374.94ZM62.0222 377.639C61.4247 378.697 62.5005 380.12 64.4249 380.816C68.6371 382.341 72.3907 384.538 75.1088 387.255C77.8269 389.972 79.1259 392.826 79.0996 395.486C79.0876 396.701 80.7113 397.977 82.7264 398.336C84.7414 398.695 86.3847 398 86.3967 396.785C86.4318 393.234 84.6894 389.369 80.997 385.678C77.3045 381.987 72.2122 379.019 66.5885 376.984C64.6641 376.287 62.6196 376.58 62.0222 377.639Z" fill="#3E61D3"/>
<path fill-rule="evenodd" clip-rule="evenodd" d="M49.2722 382.814C68.7096 394.031 100.224 394.031 119.661 382.814C139.099 371.596 139.099 353.409 119.661 342.192C100.224 330.974 68.7096 330.974 49.2722 342.192C29.8347 353.409 29.8347 371.596 49.2722 382.814ZM95.0252 368.596C96.9689 369.718 100.908 369.263 103.824 367.58C106.739 365.898 107.527 363.624 105.584 362.503C103.64 361.381 99.7005 361.836 96.7849 363.518C93.8693 365.201 93.0814 367.474 95.0252 368.596ZM82.7071 355.394C79.7914 357.076 75.8522 357.531 73.9084 356.409C71.9647 355.288 72.7525 353.014 75.6681 351.332C78.5838 349.649 82.5231 349.194 84.4668 350.316C86.4105 351.438 85.6227 353.711 82.7071 355.394ZM52.6187 366.248C52.3156 367.425 53.7231 368.521 55.7624 368.696C60.2258 369.079 64.4203 370.229 67.7493 372.15C71.0784 374.072 73.0722 376.492 73.7355 379.068C74.0385 380.245 75.9373 381.057 77.9766 380.882C80.0159 380.708 81.4233 379.612 81.1203 378.435C80.2347 374.996 77.551 371.714 73.0285 369.104C68.5061 366.494 62.819 364.945 56.8598 364.434C54.8206 364.259 52.9217 365.071 52.6187 366.248Z" fill="#CBD4F3"/>
</g>
<defs>
<clipPath id="clip0_405_607">
<rect width="438" height="480" fill="white"/>
</clipPath>
</defs>
</svg>
