<svg width="24" height="24" viewBox="0 0 24 24" fill="none" xmlns="http://www.w3.org/2000/svg">
<path d="M7.39865 21.94C10.9325 21.94 13.7973 19.052 13.7973 15.4895C13.7973 11.927 10.9325 9.03906 7.39865 9.03906C3.86478 9.03906 1 11.927 1 15.4895C1 19.052 3.86478 21.94 7.39865 21.94Z" fill="#04E061"/>
<path d="M18.4983 21.1261C20.6337 21.1261 22.3647 19.381 22.3647 17.2283C22.3647 15.0756 20.6337 13.3306 18.4983 13.3306C16.3629 13.3306 14.6318 15.0756 14.6318 17.2283C14.6318 19.381 16.3629 21.1261 18.4983 21.1261Z" fill="#FF4053"/>
<path d="M8.62212 8.19855C9.94358 8.19855 11.0148 7.11865 11.0148 5.78653C11.0148 4.45441 9.94358 3.37451 8.62212 3.37451C7.30071 3.37451 6.22949 4.45441 6.22949 5.78653C6.22949 7.11865 7.30071 8.19855 8.62212 8.19855Z" fill="#965EEB"/>
<path d="M16.9963 12.489C19.8695 12.489 22.1986 10.1409 22.1986 7.24449C22.1986 4.34803 19.8695 2 16.9963 2C14.1231 2 11.7939 4.34803 11.7939 7.24449C11.7939 10.1409 14.1231 12.489 16.9963 12.489Z" fill="#00AAFF"/>
</svg>
