<svg width="24" height="24" viewBox="0 0 24 24" fill="none" xmlns="http://www.w3.org/2000/svg">
<path d="M12.7043 16.8487L16.3116 23H13.1532L8.0591 14.3084V14.2912C8.04938 14.2739 8.03772 14.2548 8.02606 14.2318L8.00857 14.2012L7.98719 14.1667L7.96969 14.1341H12.6343C13.0361 14.1443 13.4269 14.0045 13.7286 13.7427C14.0302 13.4808 14.2203 13.1164 14.2609 12.7222C14.3014 12.3281 14.1894 11.9334 13.9472 11.6173C13.7051 11.3011 13.3507 11.0868 12.955 11.0172C12.8429 10.9963 12.729 10.986 12.6149 10.9866C10.4769 10.9866 8.87346 10.9866 7.40606 10.9866H7.27195L4.14472 16.3257H1L10.0552 1H13.1338L8.85791 8.30076H12.7354C13.5843 8.31272 14.411 8.57063 15.1123 9.04238C15.8136 9.51412 16.3586 10.1788 16.6794 10.9537C17.0002 11.7286 17.0825 12.5794 16.9162 13.4C16.7499 14.2207 16.3422 14.975 15.744 15.569C15.0364 16.2937 14.0832 16.7368 13.0658 16.8142L12.7043 16.8487Z" fill="#ED1C24"/>
<path d="M22.3333 12.9543C22.3357 14.2138 22.0834 15.4607 21.5916 16.6197C21.1805 17.5974 20.6059 18.4977 19.8927 19.2818C19.7917 19.3945 19.6868 19.5054 19.58 19.6124C19.0511 20.1433 18.461 20.609 17.8221 20.9998C17.4617 20.3768 16.9945 19.5646 16.4874 18.6951C17.3453 18.1606 18.0727 17.44 18.6158 16.5864C19.159 15.7327 19.5041 14.7678 19.6258 13.7626C19.658 13.4944 19.674 13.2244 19.6735 12.9543C19.6726 11.1742 18.9713 9.46634 17.722 8.20124C16.4726 6.93613 14.7759 6.21587 13 6.19675L14.472 3.6665C15.1986 3.78618 15.9084 3.99211 16.5865 4.27995C16.7276 4.34111 16.8668 4.40481 17.0041 4.47106C19.0627 5.46843 20.6891 7.18214 21.5802 9.29267C21.6908 9.55258 21.788 9.8163 21.8738 10.0838C22.1748 11.0109 22.3298 11.9794 22.3333 12.9543Z" fill="#ED1C24"/>
</svg>
