<?xml version="1.0"?>
<svg xmlns="http://www.w3.org/2000/svg" xmlns:xlink="http://www.w3.org/1999/xlink" version="1.1" xml:space="preserve">
  <defs>
    <symbol id="email" width="100%" height="100%" viewBox="0 0 42 42" fill="none">
      <path fill-rule="evenodd" clip-rule="evenodd" d="M5.55025 9.05025C3.5 11.1005 3.5 14.4003 3.5 21C3.5 27.5997 3.5 30.8995 5.55025 32.9497C7.60051 35 10.9003 35 17.5 35H24.5C31.0997 35 34.3995 35 36.4497 32.9497C38.5 30.8995 38.5 27.5997 38.5 21C38.5 14.4003 38.5 11.1005 36.4497 9.05025C34.3995 7 31.0997 7 24.5 7H17.5C10.9003 7 7.60051 7 5.55025 9.05025ZM32.5083 13.1598C32.9723 13.7166 32.8971 14.5442 32.3402 15.0083L28.4964 18.2115C26.9453 19.5041 25.6881 20.5519 24.5784 21.2655C23.4226 22.0089 22.2969 22.4785 21 22.4785C19.7031 22.4785 18.5774 22.0089 17.4216 21.2655C16.312 20.5519 15.0547 19.5042 13.5036 18.2115L9.65976 15.0083C9.10289 14.5442 9.02766 13.7166 9.49171 13.1598C9.95576 12.6029 10.7834 12.5277 11.3402 12.9917L15.1183 16.1401C16.751 17.5007 17.8845 18.4422 18.8415 19.0577C19.7679 19.6535 20.3961 19.8535 21 19.8535C21.6039 19.8535 22.2321 19.6535 23.1585 19.0577C24.1155 18.4422 25.249 17.5007 26.8817 16.1401L30.6598 12.9917C31.2166 12.5277 32.0442 12.6029 32.5083 13.1598Z" fill="currentColor" />

    </symbol>
    <symbol id="calendar" width="100%" height="100%" viewBox="0 0 24 24" fill="none">

      <path d="M7.75 2.5C7.75 2.08579 7.41421 1.75 7 1.75C6.58579 1.75 6.25 2.08579 6.25 2.5V4.07926C4.81067 4.19451 3.86577 4.47737 3.17157 5.17157C2.47737 5.86577 2.19451 6.81067 2.07926 8.25H21.9207C21.8055 6.81067 21.5226 5.86577 20.8284 5.17157C20.1342 4.47737 19.1893 4.19451 17.75 4.07926V2.5C17.75 2.08579 17.4142 1.75 17 1.75C16.5858 1.75 16.25 2.08579 16.25 2.5V4.0129C15.5847 4 14.839 4 14 4H10C9.16097 4 8.41527 4 7.75 4.0129V2.5Z" fill="currentColor" />
      <path fill-rule="evenodd" clip-rule="evenodd" d="M2 12C2 11.161 2 10.4153 2.0129 9.75H21.9871C22 10.4153 22 11.161 22 12V14C22 17.7712 22 19.6569 20.8284 20.8284C19.6569 22 17.7712 22 14 22H10C6.22876 22 4.34315 22 3.17157 20.8284C2 19.6569 2 17.7712 2 14V12ZM17 14C17.5523 14 18 13.5523 18 13C18 12.4477 17.5523 12 17 12C16.4477 12 16 12.4477 16 13C16 13.5523 16.4477 14 17 14ZM17 18C17.5523 18 18 17.5523 18 17C18 16.4477 17.5523 16 17 16C16.4477 16 16 16.4477 16 17C16 17.5523 16.4477 18 17 18ZM13 13C13 13.5523 12.5523 14 12 14C11.4477 14 11 13.5523 11 13C11 12.4477 11.4477 12 12 12C12.5523 12 13 12.4477 13 13ZM13 17C13 17.5523 12.5523 18 12 18C11.4477 18 11 17.5523 11 17C11 16.4477 11.4477 16 12 16C12.5523 16 13 16.4477 13 17ZM7 14C7.55228 14 8 13.5523 8 13C8 12.4477 7.55228 12 7 12C6.44772 12 6 12.4477 6 13C6 13.5523 6.44772 14 7 14ZM7 18C7.55228 18 8 17.5523 8 17C8 16.4477 7.55228 16 7 16C6.44772 16 6 16.4477 6 17C6 17.5523 6.44772 18 7 18Z" fill="currentColor" />


    </symbol>
    <symbol id="phone" width="100%" height="100%" viewBox="0 0 42 42" fill="none">
      <path d="M27.2233 25.4585L26.4263 26.2976C26.4263 26.2976 24.5317 28.2922 19.3605 22.8478C14.1892 17.4035 16.0837 15.4089 16.0837 15.4089L16.5857 14.8804C17.8221 13.5787 17.9387 11.4887 16.8599 9.96293L14.6532 6.84183C13.318 4.95337 10.7379 4.70391 9.20754 6.31512L6.46074 9.20699C5.7019 10.0059 5.19339 11.0415 5.25505 12.1904C5.41281 15.1295 6.66875 21.4533 13.6769 28.8316C21.1087 36.6559 28.082 36.9669 30.9335 36.6854C31.8354 36.5964 32.6199 36.11 33.252 35.4445L35.7379 32.8273C37.416 31.0606 36.9429 28.0318 34.7958 26.796L31.4524 24.8716C30.0427 24.0601 28.3251 24.2985 27.2233 25.4585Z" fill="currentColor" />
      <path d="M23.2041 3.29019C23.3199 2.57464 23.9964 2.08923 24.712 2.20508C24.7562 2.21355 24.8987 2.24019 24.9734 2.25682C25.1227 2.29008 25.331 2.34128 25.5908 2.41692C26.1101 2.5682 26.8357 2.81741 27.7065 3.21664C29.45 4.01596 31.7702 5.41422 34.1778 7.82187C36.5855 10.2295 37.9837 12.5497 38.783 14.2932C39.1823 15.164 39.4315 15.8896 39.5828 16.4089C39.6584 16.6686 39.7096 16.8769 39.7429 17.0263C39.7595 17.1009 39.7716 17.1609 39.7801 17.2052L39.7902 17.2598C39.906 17.9753 39.425 18.6797 38.7095 18.7956C37.996 18.9111 37.3238 18.428 37.2051 17.7158C37.2015 17.6967 37.1914 17.6453 37.1806 17.5969C37.159 17.5 37.1217 17.3463 37.0625 17.143C36.9441 16.7364 36.7384 16.1321 36.3969 15.3872C35.7147 13.8991 34.4879 11.8443 32.3217 9.67803C30.1554 7.51177 28.1006 6.28503 26.6125 5.60282C25.8676 5.2613 25.2633 5.05562 24.8567 4.93719C24.6534 4.87799 24.3979 4.81934 24.301 4.79776C23.5888 4.67907 23.0886 4.00371 23.2041 3.29019Z" fill="currentColor" />
      <path fill-rule="evenodd" clip-rule="evenodd" d="M23.6 9.32676C23.7992 8.62977 24.5256 8.22619 25.2226 8.42533L24.862 9.68733C25.2226 8.42533 25.2226 8.42533 25.2226 8.42533L25.2251 8.42605L25.2278 8.42683L25.2336 8.42853L25.2472 8.43258L25.2818 8.44337C25.3082 8.4518 25.3412 8.46279 25.3805 8.47674C25.4591 8.50462 25.5629 8.54429 25.6904 8.59889C25.9453 8.70816 26.2937 8.87689 26.7216 9.13014C27.5781 9.63708 28.7474 10.4791 30.1211 11.8528C31.4948 13.2265 32.3369 14.3959 32.8439 15.2524C33.0971 15.6803 33.2658 16.0287 33.3751 16.2836C33.4297 16.4111 33.4694 16.5149 33.4973 16.5935C33.5112 16.6328 33.5222 16.6658 33.5306 16.6922L33.5414 16.7268L33.5455 16.7403L33.5472 16.7462L33.5479 16.7489C33.5479 16.7489 33.5487 16.7514 32.2867 17.112L33.5487 16.7514C33.7478 17.4484 33.3442 18.1748 32.6472 18.374C31.9562 18.5714 31.2361 18.1763 31.0298 17.4902L31.0234 17.4713C31.014 17.4451 30.9947 17.3933 30.9623 17.3177C30.8976 17.1666 30.7802 16.9194 30.5848 16.5894C30.1946 15.9301 29.4899 14.9339 28.265 13.709C27.0401 12.4841 26.0439 11.7793 25.3846 11.3892C25.0546 11.1938 24.8074 11.0764 24.6563 11.0117C24.5807 10.9792 24.5289 10.9599 24.5026 10.9506L24.4838 10.9441C23.7977 10.7379 23.4026 10.0178 23.6 9.32676Z" fill="currentColor" />

    </symbol>
    <symbol id="menu" width="100%" height="100%" viewBox="0 0 20 18" fill="none">
      <path fill-rule="evenodd" clip-rule="evenodd" d="M0.199951 2.0001C0.199951 1.2269 0.826752 0.600098 1.59995 0.600098H18.4C19.1732 0.600098 19.8 1.2269 19.8 2.0001C19.8 2.7733 19.1732 3.4001 18.4 3.4001H1.59995C0.826752 3.4001 0.199951 2.7733 0.199951 2.0001Z" fill="currentColor" />
      <path fill-rule="evenodd" clip-rule="evenodd" d="M0.199951 9.0001C0.199951 8.2269 0.826752 7.6001 1.59995 7.6001H18.4C19.1732 7.6001 19.8 8.2269 19.8 9.0001C19.8 9.7733 19.1732 10.4001 18.4 10.4001H1.59995C0.826752 10.4001 0.199951 9.7733 0.199951 9.0001Z" fill="currentColor" />
      <path fill-rule="evenodd" clip-rule="evenodd" d="M0.199951 16.0001C0.199951 15.2269 0.826752 14.6001 1.59995 14.6001H18.4C19.1732 14.6001 19.8 15.2269 19.8 16.0001C19.8 16.7733 19.1732 17.4001 18.4 17.4001H1.59995C0.826752 17.4001 0.199951 16.7733 0.199951 16.0001Z" fill="currentColor" />
    </symbol>
    <symbol id="arrow-right" width="100%" height="100%" viewBox="0 0 20 20" fill="none">
      <path fill-rule="evenodd" clip-rule="evenodd" d="M11.2248 4.55806C11.4688 4.31398 11.8646 4.31398 12.1086 4.55806L17.1086 9.55806C17.3527 9.80214 17.3527 10.1979 17.1086 10.4419L12.1086 15.4419C11.8646 15.686 11.4688 15.686 11.2248 15.4419C10.9807 15.1979 10.9807 14.8021 11.2248 14.5581L15.1578 10.625H3.33337C2.9882 10.625 2.70837 10.3452 2.70837 10C2.70837 9.65482 2.9882 9.375 3.33337 9.375H15.1578L11.2248 5.44194C10.9807 5.19786 10.9807 4.80214 11.2248 4.55806Z" fill="currentColor" />

    </symbol>
    <symbol id="arrow-right-alt" width="100%" height="100%" viewBox="0 0 32 19" fill="none">
      <path fill-rule="evenodd" clip-rule="evenodd" d="M26.4833 9.93584H0V8.61106H26.4626C25.5887 8.19476 24.8301 7.67809 24.1629 7.05973C22.3987 5.42479 21.3458 3.14178 20.4255 0.361747L21.564 0C22.4707 2.73915 23.449 4.784 24.9854 6.2079C26.3522 7.47476 28.2191 8.30143 31.0311 8.61106H32V8.69484V9.86484V9.93584H31.1493C28.2707 10.2349 26.3707 11.0641 24.9849 12.3459C23.4489 13.7666 22.4707 15.8081 21.564 18.5471L20.4255 18.1853C21.3459 15.4051 22.3989 13.1251 24.1633 11.4933C24.8357 10.8714 25.6009 10.3528 26.4833 9.93584Z" fill="currentColor" />

    </symbol>
    <symbol id="arrow-left" width="100%" height="100%" viewBox="0 0 15 10" fill="none">
      <path d="M2 5L1.29289 4.29289L0.585786 5L1.29289 5.70711L2 5ZM14 6C14.5523 6 15 5.55228 15 5C15 4.44772 14.5523 4 14 4V6ZM5.29289 0.292893L1.29289 4.29289L2.70711 5.70711L6.70711 1.70711L5.29289 0.292893ZM1.29289 5.70711L5.29289 9.70711L6.70711 8.29289L2.70711 4.29289L1.29289 5.70711ZM2 6H14V4H2V6Z" fill="currentColor" />
    </symbol>
    <symbol id="arrow-left-alt" width="100%" height="100%" viewBox="0 0 32 19" fill="none">
      <path fill-rule="evenodd" clip-rule="evenodd" d="M5.51674 9.93584H32V8.61106H5.53737C6.41131 8.19476 7.16994 7.67809 7.83714 7.05973C9.60126 5.42479 10.6542 3.14178 11.5745 0.361747L10.436 0C9.52926 2.73915 8.55097 4.784 7.01463 6.2079C5.64777 7.47476 3.78091 8.30143 0.968855 8.61106H0V8.69484V9.86484V9.93584H0.850685C3.72931 10.2349 5.62931 11.0641 7.01514 12.3459C8.55114 13.7666 9.52926 15.8081 10.436 18.5471L11.5745 18.1853C10.6541 15.4051 9.60108 13.1251 7.83674 11.4933C7.16428 10.8714 6.39908 10.3528 5.51674 9.93584Z" fill="currentColor" />

    </symbol>
    <symbol id="gal-ochka" width="100%" height="100%" viewBox="0 0 12 10" fill="none">
      <path d="M6.23497 8.79946C5.9649 9.16602 5.54433 9.3913 5.0896 9.41369C4.63487 9.43632 4.19445 9.25304 3.88975 8.91464L1.15929 5.88456C0.725328 5.40328 0.763876 4.6614 1.24515 4.22744C1.72689 3.79348 2.46831 3.83226 2.90227 4.31377L4.83407 6.45771C4.8627 6.48956 4.90425 6.50664 4.94695 6.50456C4.98988 6.50249 5.02912 6.48102 5.05475 6.44686L9.02546 1.0614C9.40979 0.539728 10.1443 0.428699 10.6662 0.813259C11.1876 1.19782 11.2984 1.93232 10.9139 2.45376L6.23497 8.79946Z" fill="currentColor" />
    </symbol>
    <symbol id="to-right" width="100%" height="100%" viewBox="0 0 8 14" fill="none">
      <path d="M5.63663 7.00019L1.15148 2.51504C0.7935 2.15706 0.7935 1.57666 1.15148 1.21868C1.50946 0.8607 2.08986 0.8607 2.44784 1.21868L7.58118 6.35201C7.93916 6.70999 7.93916 7.29039 7.58118 7.64838L2.44784 12.7817C2.08986 13.1397 1.50946 13.1397 1.15148 12.7817C0.7935 12.4237 0.7935 11.8433 1.15148 11.4853L5.63663 7.00019Z" fill="currentColor" />
    </symbol>
    <symbol id="to-left" width="100%" height="100%" viewBox="0 0 8 14" fill="none">
      <path d="M2.36337 7.00019L6.84852 2.51504C7.2065 2.15706 7.2065 1.57666 6.84852 1.21868C6.49054 0.8607 5.91014 0.8607 5.55216 1.21868L0.418823 6.35201C0.0608425 6.70999 0.0608425 7.29039 0.418823 7.64838L5.55216 12.7817C5.91014 13.1397 6.49054 13.1397 6.84852 12.7817C7.2065 12.4237 7.2065 11.8433 6.84852 11.4853L2.36337 7.00019Z" fill="currentColor" />
    </symbol>
    <symbol id="play" width="100%" height="100%" viewBox="0 0 24 24" fill="none">
      <path d="M19.5761 9.35258C21.4746 10.5065 21.4746 13.4935 19.5761 14.6474L8.11276 21.6145C6.26758 22.736 4 21.2763 4 18.9671L4 5.0329C4 2.72368 6.26758 1.26402 8.11276 2.38548L19.5761 9.35258Z" fill="currentColor" />
    </symbol>
    <symbol id="cross" width="100%" height="100%" viewBox="0 0 16 16" fill="none">
      <path d="M1 15L15 1M1 1L15 15" fill="none" stroke="currentColor" stroke-width="2" stroke-linecap="round" stroke-linejoin="round" />
    </symbol>
    <symbol id="map-point" width="100%" height="100%" viewBox="0 0 25 24" fill="none">
      <path fill-rule="evenodd" clip-rule="evenodd" d="M12.146 2C7.72772 2 4.146 6.00258 4.146 10.5C4.146 14.9622 6.69932 19.8124 10.6831 21.6744C11.6117 22.1085 12.6803 22.1085 13.6089 21.6744C17.5927 19.8124 20.146 14.9622 20.146 10.5C20.146 6.00258 16.5643 2 12.146 2ZM12.146 12C13.2506 12 14.146 11.1046 14.146 10C14.146 8.89543 13.2506 8 12.146 8C11.0414 8 10.146 8.89543 10.146 10C10.146 11.1046 11.0414 12 12.146 12Z" fill="currentColor" />

    </symbol>
    <symbol id="widjet" width="100%" height="100%" viewBox="0 0 24 24" fill="none">
      <path fill-rule="evenodd" clip-rule="evenodd" d="M2 6.63415C2 4.07478 4.07478 2 6.63415 2C9.19351 2 11.2683 4.07478 11.2683 6.63415C11.2683 9.19351 9.19351 11.2683 6.63415 11.2683C4.07478 11.2683 2 9.19351 2 6.63415Z" fill="currentColor" />
      <path fill-rule="evenodd" clip-rule="evenodd" d="M12.7317 17.3659C12.7317 14.8065 14.8065 12.7317 17.3659 12.7317C19.9252 12.7317 22 14.8065 22 17.3659C22 19.9252 19.9252 22 17.3659 22C14.8065 22 12.7317 19.9252 12.7317 17.3659Z" fill="currentColor" />
      <path d="M2 17.5C2 15.3787 2 14.318 2.65901 13.659C3.31802 13 4.37868 13 6.5 13C8.62132 13 9.68198 13 10.341 13.659C11 14.318 11 15.3787 11 17.5C11 19.6213 11 20.682 10.341 21.341C9.68198 22 8.62132 22 6.5 22C4.37868 22 3.31802 22 2.65901 21.341C2 20.682 2 19.6213 2 17.5Z" fill="currentColor" />
      <path d="M13 6.5C13 4.37868 13 3.31802 13.659 2.65901C14.318 2 15.3787 2 17.5 2C19.6213 2 20.682 2 21.341 2.65901C22 3.31802 22 4.37868 22 6.5C22 8.62132 22 9.68198 21.341 10.341C20.682 11 19.6213 11 17.5 11C15.3787 11 14.318 11 13.659 10.341C13 9.68198 13 8.62132 13 6.5Z" fill="currentColor" />

    </symbol>
    <symbol id="crown" width="100%" height="100%" viewBox="0 0 24 24" fill="none">
      <path fill-rule="evenodd" clip-rule="evenodd" d="M21.8382 11.1263L21.609 13.5616C21.2313 17.5742 21.0425 19.5805 19.8599 20.7902C18.6773 22 16.9048 22 13.3599 22H10.6401C7.09517 22 5.32271 22 4.14009 20.7902C2.95748 19.5805 2.76865 17.5742 2.391 13.5616L2.16181 11.1263C1.9818 9.2137 1.8918 8.25739 2.21899 7.86207C2.39598 7.64823 2.63666 7.5172 2.89399 7.4946C3.36968 7.45282 3.96708 8.1329 5.16187 9.49307C5.77977 10.1965 6.08872 10.5482 6.43337 10.6027C6.62434 10.6328 6.81892 10.6018 6.99526 10.5131C7.31351 10.3529 7.5257 9.91812 7.95007 9.04852L10.1869 4.46486C10.9888 2.82162 11.3898 2 12 2C12.6102 2 13.0112 2.82162 13.8131 4.46485L16.0499 9.04851C16.4743 9.91812 16.6865 10.3529 17.0047 10.5131C17.1811 10.6018 17.3757 10.6328 17.5666 10.6027C17.9113 10.5482 18.2202 10.1965 18.8381 9.49307C20.0329 8.1329 20.6303 7.45282 21.106 7.4946C21.3633 7.5172 21.604 7.64823 21.781 7.86207C22.1082 8.25739 22.0182 9.2137 21.8382 11.1263ZM8.25 18C8.25 17.5858 8.58579 17.25 9 17.25H15C15.4142 17.25 15.75 17.5858 15.75 18C15.75 18.4142 15.4142 18.75 15 18.75H9C8.58579 18.75 8.25 18.4142 8.25 18Z" fill="currentColor" />

    </symbol>
    <symbol id="circle-check" width="100%" height="100%" viewBox="0 0 16 16" fill="none">
      <path fill-rule="evenodd" clip-rule="evenodd" d="M14.6668 7.99992C14.6668 11.6818 11.6821 14.6666 8.00016 14.6666C4.31826 14.6666 1.3335 11.6818 1.3335 7.99992C1.3335 4.31802 4.31826 1.33325 8.00016 1.33325C11.6821 1.33325 14.6668 4.31802 14.6668 7.99992ZM10.687 5.9797C10.8823 6.17496 10.8823 6.49154 10.687 6.6868L7.35372 10.0201C7.15845 10.2154 6.84187 10.2154 6.64661 10.0201L5.31328 8.68681C5.11801 8.49154 5.11801 8.17496 5.31328 7.9797C5.50854 7.78444 5.82512 7.78444 6.02038 7.9797L7.00016 8.95948L8.49005 7.46959L9.97994 5.9797C10.1752 5.78444 10.4918 5.78444 10.687 5.9797Z" fill="currentColor" />

    </symbol>
    <symbol id="user" width="100%" height="100%" viewBox="0 0 24 24" fill="none">
      <circle cx="12" cy="6" r="4" fill="currentColor" />
      <path d="M20 17.5C20 19.9853 20 22 12 22C4 22 4 19.9853 4 17.5C4 15.0147 7.58172 13 12 13C16.4183 13 20 15.0147 20 17.5Z" fill="currentColor" />

    </symbol>
    <symbol id="star" width="100%" height="100%" viewBox="0 0 16 16" fill="none">
      <path d="M6.10227 3.60575C6.94671 2.09091 7.36892 1.3335 8.00016 1.3335C8.6314 1.3335 9.05362 2.09091 9.89805 3.60575L10.1165 3.99765C10.3565 4.42812 10.4765 4.64335 10.6635 4.78537C10.8506 4.92738 11.0836 4.9801 11.5496 5.08553L11.9738 5.18152C13.6136 5.55253 14.4335 5.73804 14.6285 6.36532C14.8236 6.99259 14.2647 7.64621 13.1468 8.95345L12.8576 9.29164C12.5399 9.66312 12.381 9.84886 12.3096 10.0786C12.2381 10.3084 12.2621 10.5562 12.3102 11.0519L12.3539 11.5031C12.5229 13.2472 12.6074 14.1193 12.0967 14.507C11.586 14.8947 10.8184 14.5412 9.28305 13.8343L8.88584 13.6514C8.44955 13.4505 8.2314 13.3501 8.00016 13.3501C7.76893 13.3501 7.55078 13.4505 7.11449 13.6514L6.71728 13.8343C5.18195 14.5412 4.41428 14.8947 3.90359 14.507C3.39291 14.1193 3.47742 13.2472 3.64643 11.5031L3.69015 11.0519C3.73818 10.5562 3.76219 10.3084 3.69074 10.0786C3.61928 9.84886 3.46045 9.66312 3.14278 9.29164L2.85356 8.95345C1.73566 7.64621 1.17671 6.99259 1.37178 6.36532C1.56684 5.73804 2.38673 5.55253 4.02652 5.18152L4.45075 5.08553C4.91673 4.9801 5.14972 4.92738 5.33679 4.78537C5.52387 4.64335 5.64385 4.42812 5.88381 3.99765L6.10227 3.60575Z" fill="currentColor" />

    </symbol>
    <symbol id="building" width="100%" height="100%" viewBox="0 0 42 42" fill="none">
      <path fill-rule="evenodd" clip-rule="evenodd" d="M26.25 3.5H29.75C33.0498 3.5 34.6997 3.5 35.7249 4.52513C36.75 5.55025 36.75 7.20017 36.75 10.5V37.1875H38.5C39.2249 37.1875 39.8125 37.7751 39.8125 38.5C39.8125 39.2249 39.2249 39.8125 38.5 39.8125H3.5C2.77513 39.8125 2.1875 39.2249 2.1875 38.5C2.1875 37.7751 2.77513 37.1875 3.5 37.1875H5.25V15.75C5.25 12.4502 5.25 10.8003 6.27513 9.77513C7.30025 8.75 8.95017 8.75 12.25 8.75H19.25C22.5498 8.75 24.1997 8.75 25.2249 9.77513C26.25 10.8003 26.25 12.4502 26.25 15.75V37.1875H28.875V15.75L28.875 15.5934C28.8752 14.0785 28.8754 12.6896 28.7235 11.5598C28.5562 10.3156 28.1626 9.00055 27.081 7.91897C25.9995 6.83739 24.6844 6.44382 23.4402 6.27655C22.3263 6.12678 20.9605 6.12483 19.4705 6.12498C19.618 5.4473 19.8642 4.93603 20.2751 4.52513C21.3003 3.5 22.9502 3.5 26.25 3.5ZM9.1875 14C9.1875 13.2751 9.77513 12.6875 10.5 12.6875H21C21.7249 12.6875 22.3125 13.2751 22.3125 14C22.3125 14.7249 21.7249 15.3125 21 15.3125H10.5C9.77513 15.3125 9.1875 14.7249 9.1875 14ZM9.1875 19.25C9.1875 18.5251 9.77513 17.9375 10.5 17.9375H21C21.7249 17.9375 22.3125 18.5251 22.3125 19.25C22.3125 19.9749 21.7249 20.5625 21 20.5625H10.5C9.77513 20.5625 9.1875 19.9749 9.1875 19.25ZM9.1875 24.5C9.1875 23.7751 9.77513 23.1875 10.5 23.1875H21C21.7249 23.1875 22.3125 23.7751 22.3125 24.5C22.3125 25.2249 21.7249 25.8125 21 25.8125H10.5C9.77513 25.8125 9.1875 25.2249 9.1875 24.5ZM15.75 31.9375C16.4749 31.9375 17.0625 32.5251 17.0625 33.25V37.1875H14.4375V33.25C14.4375 32.5251 15.0251 31.9375 15.75 31.9375Z" fill="currentColor" />

    </symbol>

    <!--  -->
    <!--  -->
    <!--  -->
  </defs>
</svg>