<svg width="33" height="32" viewBox="0 0 33 32" fill="none" xmlns="http://www.w3.org/2000/svg">
<rect x="2.73291" y="2" width="28" height="28" rx="6" fill="url(#paint0_radial_60_558)"/>
<rect x="2.73291" y="2" width="28" height="28" rx="6" fill="url(#paint1_radial_60_558)"/>
<rect x="2.73291" y="2" width="28" height="28" rx="6" fill="url(#paint2_radial_60_558)"/>
<path d="M23.7329 10.5C23.7329 11.3284 23.0613 12 22.2329 12C21.4045 12 20.7329 11.3284 20.7329 10.5C20.7329 9.67157 21.4045 9 22.2329 9C23.0613 9 23.7329 9.67157 23.7329 10.5Z" fill="white"/>
<path fill-rule="evenodd" clip-rule="evenodd" d="M16.7329 21C19.4943 21 21.7329 18.7614 21.7329 16C21.7329 13.2386 19.4943 11 16.7329 11C13.9715 11 11.7329 13.2386 11.7329 16C11.7329 18.7614 13.9715 21 16.7329 21ZM16.7329 19C18.3898 19 19.7329 17.6569 19.7329 16C19.7329 14.3431 18.3898 13 16.7329 13C15.0761 13 13.7329 14.3431 13.7329 16C13.7329 17.6569 15.0761 19 16.7329 19Z" fill="white"/>
<path fill-rule="evenodd" clip-rule="evenodd" d="M6.73291 15.6C6.73291 12.2397 6.73291 10.5595 7.38687 9.27606C7.96211 8.14708 8.87999 7.2292 10.009 6.65396C11.2924 6 12.9726 6 16.3329 6H17.1329C20.4932 6 22.1734 6 23.4569 6.65396C24.5858 7.2292 25.5037 8.14708 26.0789 9.27606C26.7329 10.5595 26.7329 12.2397 26.7329 15.6V16.4C26.7329 19.7603 26.7329 21.4405 26.0789 22.7239C25.5037 23.8529 24.5858 24.7708 23.4569 25.346C22.1734 26 20.4932 26 17.1329 26H16.3329C12.9726 26 11.2924 26 10.009 25.346C8.87999 24.7708 7.96211 23.8529 7.38687 22.7239C6.73291 21.4405 6.73291 19.7603 6.73291 16.4V15.6ZM16.3329 8H17.1329C18.8461 8 20.0107 8.00156 20.9108 8.0751C21.7877 8.14674 22.2361 8.27659 22.5489 8.43597C23.3015 8.81947 23.9134 9.43139 24.2969 10.184C24.4563 10.4968 24.5862 10.9452 24.6578 11.8221C24.7314 12.7223 24.7329 13.8868 24.7329 15.6V16.4C24.7329 18.1132 24.7314 19.2777 24.6578 20.1779C24.5862 21.0548 24.4563 21.5032 24.2969 21.816C23.9134 22.5686 23.3015 23.1805 22.5489 23.564C22.2361 23.7234 21.7877 23.8533 20.9108 23.9249C20.0107 23.9984 18.8461 24 17.1329 24H16.3329C14.6198 24 13.4552 23.9984 12.555 23.9249C11.6782 23.8533 11.2297 23.7234 10.9169 23.564C10.1643 23.1805 9.55238 22.5686 9.16888 21.816C9.0095 21.5032 8.87965 21.0548 8.80801 20.1779C8.73447 19.2777 8.73291 18.1132 8.73291 16.4V15.6C8.73291 13.8868 8.73447 12.7223 8.80801 11.8221C8.87965 10.9452 9.0095 10.4968 9.16888 10.184C9.55238 9.43139 10.1643 8.81947 10.9169 8.43597C11.2297 8.27659 11.6782 8.14674 12.555 8.0751C13.4552 8.00156 14.6198 8 16.3329 8Z" fill="white"/>
<defs>
<radialGradient id="paint0_radial_60_558" cx="0" cy="0" r="1" gradientUnits="userSpaceOnUse" gradientTransform="translate(12.7329 23) rotate(-55.3758) scale(25.5196)">
<stop stop-color="#B13589"/>
<stop offset="0.79309" stop-color="#C62F94"/>
<stop offset="1" stop-color="#8A3AC8"/>
</radialGradient>
<radialGradient id="paint1_radial_60_558" cx="0" cy="0" r="1" gradientUnits="userSpaceOnUse" gradientTransform="translate(11.7329 31) rotate(-65.1363) scale(22.5942)">
<stop stop-color="#E0E8B7"/>
<stop offset="0.444662" stop-color="#FB8A2E"/>
<stop offset="0.71474" stop-color="#E2425C"/>
<stop offset="1" stop-color="#E2425C" stop-opacity="0"/>
</radialGradient>
<radialGradient id="paint2_radial_60_558" cx="0" cy="0" r="1" gradientUnits="userSpaceOnUse" gradientTransform="translate(1.23291 3) rotate(-8.1301) scale(38.8909 8.31836)">
<stop offset="0.156701" stop-color="#406ADC"/>
<stop offset="0.467799" stop-color="#6A45BE"/>
<stop offset="1" stop-color="#6A45BE" stop-opacity="0"/>
</radialGradient>
</defs>
</svg>
