<svg width="40" height="42" viewBox="0 0 40 42" fill="none" xmlns="http://www.w3.org/2000/svg">
<path d="M21.948 30.2565L28.7125 42H22.79L13.2373 25.407V25.3741C13.2191 25.3412 13.1973 25.3046 13.1754 25.2607L13.1426 25.2022L13.1025 25.1364L13.0697 25.0742H21.8168C22.5703 25.0936 23.3032 24.8267 23.8688 24.3269C24.4344 23.8271 24.791 23.1312 24.867 22.3788C24.9431 21.6264 24.733 20.8729 24.2789 20.2693C23.8248 19.6657 23.1602 19.2566 22.4182 19.1238C22.208 19.0839 21.9944 19.0643 21.7804 19.0653C17.7713 19.0653 14.7645 19.0653 12.0127 19.0653H11.7613L5.89703 29.2581H0L16.9804 0H22.7535L14.7353 13.9378H22.0064C23.5984 13.9606 25.1485 14.453 26.4637 15.3536C27.7788 16.2542 28.8008 17.5232 29.4023 19.0026C30.0038 20.4819 30.1582 22.1061 29.8463 23.6728C29.5344 25.2396 28.77 26.6796 27.6483 27.8135C26.3213 29.197 24.5339 30.0431 22.6259 30.1907L21.948 30.2565Z" fill="#373737"/>
<path d="M39.9997 22.3129C40.0043 24.7232 39.522 27.1094 38.5819 29.3275C37.7961 31.1986 36.6979 32.9215 35.3346 34.4221C35.1414 34.6378 34.941 34.85 34.7369 35.0548C33.7259 36.0707 32.5978 36.9621 31.3765 37.7099C30.6877 36.5177 29.7947 34.9633 28.8252 33.2993C30.4652 32.2764 31.8556 30.8974 32.8938 29.2637C33.9321 27.63 34.5918 25.7834 34.8243 23.8599C34.886 23.3465 34.9164 22.8299 34.9154 22.3129C34.9137 18.9063 33.5733 15.6379 31.1852 13.2168C28.797 10.7958 25.5538 9.41737 22.1592 9.38079L24.9728 4.53857C26.3618 4.76759 27.7186 5.16169 29.0148 5.71255C29.2845 5.82958 29.5505 5.95149 29.8129 6.07828C33.7479 7.98698 36.8568 11.2666 38.5601 15.3056C38.7715 15.8029 38.9573 16.3076 39.1213 16.8197C39.6966 18.5938 39.993 20.4471 39.9997 22.3129Z" fill="#ED1C24"/>
</svg>
