<svg width="200" height="62" viewBox="0 0 200 62" fill="none" xmlns="http://www.w3.org/2000/svg">
  <circle cx="31" cy="31" r="31" fill="url(#a)"/>
  <circle cx="31" cy="31" r="28" stroke="#fff" stroke-width="2"/>
  <path d="m32.4 37.2 5 8.4H33l-7-11.9v-.2h6.3c.6 0 1.1-.2 1.5-.6a2.1 2.1 0 0 0-1-3.7H25l-4.3 7.3h-4.3l12.4-21H33l-5.8 10h5.3a6 6 0 0 1 5.4 3.6 5.8 5.8 0 0 1-1.3 6.3c-1 1-2.3 1.6-3.7 1.7h-.5Z" fill="#fff"/>
  <path d="M45.6 31.8a12.8 12.8 0 0 1-6.2 11l-1.8-3.1a9.2 9.2 0 0 0-4.8-17l2-3.6a12.7 12.7 0 0 1 9.8 7.7 12.5 12.5 0 0 1 1 5Z" fill="#ED1C24"/>
  <path fill-rule="evenodd" clip-rule="evenodd" d="M188.3 10h2.2v15.7h-2.2V10ZM101 15.3V10h2.3v15.7h-1.9l-.2-1.4c-.3.5-.8.9-1.3 1.2-.7.3-1.4.4-2.1.4-.9 0-1.7-.2-2.5-.6a4.2 4.2 0 0 1-1.6-2 9.1 9.1 0 0 1-.5-3.5c0-1 .1-2.2.5-3.3.3-.8 1-1.5 1.6-2a5.5 5.5 0 0 1 3.8-.5c.8.3 1.4.7 2 1.3Zm-4.2 8.2c.4.3 1 .4 1.5.4s1-.1 1.5-.4c.5-.3.8-.8 1-1.3l.2-2.1v-.4c0-.6 0-1.2-.2-1.8l-.6-1.2a2 2 0 0 0-.8-.6 3 3 0 0 0-1-.2 3 3 0 0 0-1.7.4c-.4.3-.7.7-.9 1.2-.2.7-.3 1.5-.3 2.2v.5c0 .7.1 1.5.4 2.2.1.5.4.9.9 1.1Zm-13-12.7h3l5.9 14.9h-2.6L88.7 22h-6.8l-1.4 3.6H78l5.9-15Zm.6 4.9L82.7 20h5.1l-1.6-4.3-.2-.5-.2-.7v-.1l-.1-.2-.3-.6-.1-.5-.2.6a46.7 46.7 0 0 1-.7 2Zm30.8-1.5-4.3 11.5h-2.1l-4.3-11.5h2.4l2 5.6a29.5 29.5 0 0 1 .6 1.6l.2.7.2.6a22.4 22.4 0 0 0 .6-1.8l.3-1 2-5.7h2.4Zm10.3 2.2c.4 1 .5 2 .5 3v1.2h-8c0 .6.2 1.3.4 1.9.2.4.5.9 1 1.1.5.3 1 .4 1.6.4.4 0 .8 0 1.2-.2.3 0 .6-.2.9-.5l.5-.7.2-1v-.1h2.2v.2c0 .6-.1 1.2-.4 1.7-.2.5-.5 1-1 1.4l-1.5.8-2.1.3c-1 0-2-.2-2.9-.6a4.2 4.2 0 0 1-1.8-2 9.7 9.7 0 0 1 0-6.8c.4-.8 1-1.5 1.8-2 1-.4 2-.6 3-.6s1.9.2 2.7.6a4 4 0 0 1 1.7 2Zm-4.5-.6c-.6 0-1 .1-1.6.4-.4.2-.7.5-1 1a5 5 0 0 0-.3 1.6h5.5c0-.4 0-.9-.2-1.3 0-.4-.3-.7-.5-1a2 2 0 0 0-.8-.5l-1.1-.2Zm12.6-1.6v2h-.9c-.4 0-.8 0-1.1.2a2 2 0 0 0-.8.6l-.5 1a5 5 0 0 0-.1 1.3v6.4h-2.3V14.2h1.9l.1 1.4.3-.5a2.5 2.5 0 0 1 2.2-1.2 3.2 3.2 0 0 1 1 .2h.2Zm17.4 3.7a4 4 0 0 1-1.8 1.5l3.1 6.3h-2.6l-2.9-5.8h-5.1v5.8h-2.4v-15h7.8c.9 0 1.8.2 2.5.6.7.4 1.3 1 1.6 1.6a5.5 5.5 0 0 1-.2 5Zm-4-5h-5.3v4.9h5.2a2.2 2.2 0 0 0 1.8-.7c.4-.5.6-1.2.6-1.9 0-.4 0-.8-.3-1.2-.2-.4-.4-.6-.8-.8-.4-.2-.8-.3-1.3-.3Zm16.7 6.6c0-1-.1-2.1-.5-3a4 4 0 0 0-1.7-2c-.8-.4-1.8-.6-2.7-.6-1 0-2 .2-3 .7-.8.4-1.4 1.1-1.8 2a9.8 9.8 0 0 0 0 6.7c.4.8 1 1.5 1.8 2a6 6 0 0 0 3 .6c.6 0 1.3 0 2-.3l1.6-.8 1-1.4c.2-.5.3-1.1.3-1.7v-.2h-2.2v.2c0 .3 0 .6-.2 1a2.3 2.3 0 0 1-1.4 1.2h-1.2c-.5.1-1.1 0-1.6-.3-.5-.2-.8-.7-1-1.1-.2-.6-.3-1.3-.3-2h8v-1Zm-6.6-3.3a3.5 3.5 0 0 1 2.6-.2l1 .5.4 1c.2.4.2.9.2 1.3h-5.5c0-.6.2-1.1.4-1.6s.5-.8 1-1Zm17 7.7c.3-.5.4-1 .4-1.6 0-.6-.1-1.2-.4-1.7a3 3 0 0 0-1.1-1l-1.5-.5-1.5-.4-1.3-.5c-.3 0-.6-.2-.9-.4a.8.8 0 0 1-.3-.7 1 1 0 0 1 .5-.9l.7-.3a5 5 0 0 1 2.4.2c.3 0 .5.3.7.5l.2.7v.5h2.2V17c0-.4 0-.8-.2-1.2a3 3 0 0 0-.9-1 4 4 0 0 0-1.4-.7 7.6 7.6 0 0 0-3.8 0c-.4 0-1 .3-1.4.6a3 3 0 0 0-1 1 3 3 0 0 0-.2 1.4 2.6 2.6 0 0 0 1.2 2.4 25.8 25.8 0 0 0 2.6 1l1.6.5c.4 0 .8.3 1.1.5a1.1 1.1 0 0 1 .4 1c0 .2 0 .5-.3.7a2 2 0 0 1-.8.5c-1 .3-1.8.3-2.7 0-.3 0-.7-.2-.9-.5-.2-.3-.4-.7-.3-1v-.5H165v.1l-.1.3v.2c0 .5.1 1 .3 1.4.2.5.5.9 1 1.2l1.4.7c1.3.3 2.7.3 4 0l1.5-.6a3 3 0 0 0 1-1.2Zm11.7-9.7v11.5h-2v-1.5l-1 .9a4 4 0 0 1-1.2.6c-.5.2-1 .2-1.6.2-1 0-1.9-.2-2.7-.8-.7-.6-1-1.7-1-3v-8h2.3v7.7l.1 1a1.4 1.4 0 0 0 1.1 1h.9a2.7 2.7 0 0 0 2.4-1.3c.3-.5.4-1 .4-1.6v-6.7h2.3Zm9.8 2V23c0 .2 0 .5.2.7a.7.7 0 0 0 .5.1h1.4v1.6h-.1l-.6.2-.6.2h-.6c-.5 0-1 0-1.5-.4a2 2 0 0 1-.7-1c-.2-.3-.3-.7-.3-1.1V16H192v-2h1.5l.4-3h1.8v3h2.1v2h-2ZM91.6 45 90 43.5l1.2-1.7 1.4-2 .2-.2-1.9-1.1v.2l-.5.6a255.5 255.5 0 0 0-1 1.7l-.8 1.1-3-3 .7-.4 1.2-.8c.4-.3.7-.8 1-1.2.2-.5.3-1 .3-1.6a3.4 3.4 0 0 0-2-3.2 4.7 4.7 0 0 0-4 0 3.5 3.5 0 0 0-1.9 3.4c0 .7.2 1.5.6 2.2l.7 1-1.2.7c-.6.4-1.1 1-1.5 1.6-.4.7-.6 1.5-.6 2.4 0 .7.2 1.5.5 2.1a4 4 0 0 0 1.6 1.6c.9.4 1.8.6 2.7.6a5.9 5.9 0 0 0 3.6-1.2l1.3-1.3.8.8 1.5 1.4h2.8L91.6 45ZM85 33.3a1.8 1.8 0 0 1 1.3.5 1.7 1.7 0 0 1 .5 1.3c0 .4 0 .8-.3 1.2l-.9.9a8 8 0 0 1-1.2.6l-.8-1.2c-.3-.4-.4-.9-.4-1.3 0-.6.1-1 .5-1.4a1.7 1.7 0 0 1 1.3-.6Zm-2 5.3Zm3.5 6a3.4 3.4 0 0 1-2.4 1c-.6 0-1.2-.1-1.7-.3-.4-.2-.7-.6-1-1-.2-.4-.3-.8-.3-1.3s.1-1 .3-1.4l1-1.1 1.2-.7 3.8 3.8-1 1Zm23.8-6.8v.2h2.5v-.2c0-1.1-.3-2.2-.9-3.2a5.1 5.1 0 0 0-2.3-1.9c-1.1-.4-2.3-.6-3.4-.6a7 7 0 0 0-5.3 2c-1.2 1.2-1.9 3.2-1.9 5.7 0 1.5.3 3 .9 4.3.5 1.1 1.4 2 2.4 2.6 1.2.6 2.5.9 3.9.8 1.1 0 2.3-.2 3.3-.6 1-.4 1.8-1 2.4-1.9.6-1 .9-2 .9-3.2v-.2h-2.4v.2c0 .7-.2 1.4-.5 2a3 3 0 0 1-1.4 1.2 6 6 0 0 1-2.3.4c-.9 0-1.7-.2-2.5-.6-.7-.3-1.3-1-1.6-1.6-.4-1-.6-2-.5-3.1v-.4c0-1.1.1-2.2.5-3.1.3-.8.9-1.4 1.6-1.8.8-.4 1.6-.6 2.5-.5.7 0 1.5 0 2.2.4.6.2 1 .6 1.4 1.1.4.6.6 1.3.5 2Zm14 .3c-.3-.8-1-1.5-1.8-2a7 7 0 0 0-5.9 0c-.8.5-1.4 1.2-1.8 2a9.4 9.4 0 0 0 0 6.8c.4.8 1 1.5 1.8 2a7 7 0 0 0 5.9 0c.8-.5 1.5-1.2 1.8-2 .8-2.2.8-4.6 0-6.8Zm-4.7 7.5c-.6 0-1.2-.2-1.7-.4-.5-.3-.9-.8-1-1.3a6 6 0 0 1-.4-2.2v-.4c0-.8.1-1.5.4-2.2.1-.5.5-1 1-1.2.5-.3 1-.4 1.7-.4.6 0 1.1 0 1.7.4.4.2.8.7 1 1.2.2.7.3 1.4.3 2.2v.4a6 6 0 0 1-.3 2.2c-.2.5-.6 1-1 1.3-.6.2-1.1.4-1.7.4Zm16.7 1.7v-7.9c0-.8 0-1.6-.4-2.3a3 3 0 0 0-1.4-1.2c-.6-.3-1.2-.4-1.9-.4-.5 0-1 0-1.5.2a4 4 0 0 0-2.2 1.6l-.1-1.5h-2v11.5h2.3v-6.7c0-.6.1-1.2.4-1.7.2-.4.6-.7 1-1 .4-.2 1-.3 1.4-.3h1l.6.4c.2.1.3.3.4.6l.2 1v7.7h2.2Zm11.3-3.4c0 .5-.1 1.1-.4 1.6-.2.5-.5.9-1 1.2-.4.3-1 .5-1.5.6-1.3.3-2.6.3-4 0l-1.4-.7c-.4-.3-.8-.7-1-1.2-.2-.4-.3-1-.3-1.4v-.6h2.3v.5c0 .3 0 .7.3 1 .3.3.6.5 1 .5.8.3 1.7.3 2.6 0 .3 0 .6-.2.8-.5a1.3 1.3 0 0 0 0-1.7l-1.2-.5-1.5-.5a23.1 23.1 0 0 1-2.6-1 2.7 2.7 0 0 1-1.3-2.4 2.9 2.9 0 0 1 1.2-2.4l1.5-.7a7.6 7.6 0 0 1 3.7 0c.6.2 1 .4 1.4.8.4.2.7.6.9 1 .2.4.3.8.2 1.2v.7H145v-.5c0-.2 0-.5-.2-.7-.1-.2-.4-.4-.7-.5-.4-.2-.9-.3-1.4-.3a5 5 0 0 0-1 .1l-.6.3c-.2 0-.3.2-.4.4l-.1.5a.8.8 0 0 0 .2.7l1 .4 1.2.5 1.5.4 1.5.6c.4.2.8.5 1.1 1 .3.4.4 1 .4 1.6Zm11.3 3.4V35.8h-2.3v6.7a3 3 0 0 1-.4 1.6 2.7 2.7 0 0 1-2.4 1.4l-.9-.1-.6-.3-.5-.6a3 3 0 0 1-.1-1.1v-7.6h-2.3v7.8c0 1.4.4 2.5 1 3a4 4 0 0 0 2.7 1c.6 0 1-.1 1.6-.3a4 4 0 0 0 2.1-1.5l.2 1.5h1.9Zm4.7-15.7h-2.2v15.7h2.2V31.6Zm5.1 13v-6.9h2.1v-2h-2v-3h-2l-.3 3H165v2h1.5V45c0 .4 0 .8.2 1.2.1.4.4.7.8 1 .4.2 1 .3 1.4.3h.6l.6-.2c.2 0 .4 0 .6-.2h.1v-1.6h-1.4a.7.7 0 0 1-.5-.1l-.2-.7Zm6-13h-2.3V34h2.3v-2.5Zm-2.3 4.2h2.3v11.5h-2.3V35.8Zm14.2 3.6v7.9h-2.2v-7.6c0-.4 0-.8-.2-1.1 0-.3-.2-.5-.4-.6l-.7-.4a4 4 0 0 0-.9 0 3 3 0 0 0-1.4.3c-.4.2-.8.6-1 1-.3.5-.4 1-.4 1.6v6.8h-2.3V35.8h2v1.5a4.3 4.3 0 0 1 2.3-1.6 5.4 5.4 0 0 1 3.4.2c.6.2 1 .7 1.4 1.2.3.7.5 1.5.4 2.3Zm13-5.2a2.8 2.8 0 0 1-2.1 2.7 3.5 3.5 0 0 1 .9 2.4c0 .7-.2 1.4-.6 2-.4.5-.9 1-1.6 1.3-.8.4-1.6.5-2.5.5h-1.8c-.2 0-.5 0-.8.2a.6.6 0 0 0-.3.5.6.6 0 0 0 .3.6l.8.2h4.6a2.8 2.8 0 0 1 2.8 1.9l.2 1.2a3.3 3.3 0 0 1-1.9 3c-.6.3-1.3.4-2 .4h-4.5l-1.6-.3-1.1-1c-.3-.5-.5-1-.5-1.6 0-.6.2-1.2.6-1.7l1-.8a2.2 2.2 0 0 1-.9-1.7 1.8 1.8 0 0 1 .6-1.4l1-.6-.8-1c-.3-.5-.5-1.1-.5-1.7 0-.7.2-1.4.6-2 .3-.6 1-1 1.6-1.3.8-.4 1.7-.5 2.6-.5l1.3.1c.3 0 .7.1 1 .3a2.4 2.4 0 0 0 1.3-1.8V34h2.3v.2Zm-9 14.7c.3.3.7.4 1 .4h4c.3 0 .6 0 .9-.2l.5-.5.2-.6a1.3 1.3 0 0 0-.4-1 1.2 1.2 0 0 0-.9-.4h-4.2a1.4 1.4 0 0 0-1.4 1.4 1.2 1.2 0 0 0 .4 1Zm3-7.6c.7 0 1.4-.1 2-.5a2.1 2.1 0 0 0 0-3 3.5 3.5 0 0 0-3.8 0 1.8 1.8 0 0 0-.6 1.5c0 .4 0 .7.2 1 .2.4.5.6.8.8l1.5.2Z" fill="#373737"/>
  <defs>
    <linearGradient id="a" x1="62" y1="0" x2="0" y2="62" gradientUnits="userSpaceOnUse">
      <stop offset=".3" stop-color="#3A5DD2"/>
      <stop offset="1" stop-color="#5091E3"/>
    </linearGradient>
  </defs>
</svg>
