<svg width="33" height="32" viewBox="0 0 33 32" fill="none" xmlns="http://www.w3.org/2000/svg">
<path d="M16.1496 30H17.3162C23.6629 30 26.8246 30 28.7846 28.04C30.7329 26.08 30.7329 22.9067 30.7329 16.5833V15.3933C30.7329 9.09333 30.7329 5.92 28.7846 3.96C26.8246 2 23.6512 2 17.3162 2H16.1496C9.80291 2 6.64124 2 4.68124 3.96C2.73291 5.92 2.73291 9.09333 2.73291 15.4167V16.6067C2.73291 22.9067 2.73291 26.08 4.69291 28.04C6.65291 30 9.82624 30 16.1496 30Z" fill="#0077FF"/>
<path d="M17.5368 22C11.3869 22 7.87907 17.8709 7.73291 11H10.8135C10.9147 16.043 13.1858 18.1792 14.9846 18.6196V11H17.8853V15.3493C19.6617 15.1622 21.528 13.1802 22.1576 11H25.0583C24.8211 12.1307 24.3482 13.2013 23.6691 14.1448C22.9901 15.0883 22.1196 15.8845 21.112 16.4835C22.2367 17.0308 23.2301 17.8055 24.0266 18.7564C24.8231 19.7073 25.4047 20.8128 25.7329 22H22.5399C22.2453 20.9688 21.6464 20.0458 20.8184 19.3465C19.9904 18.6472 18.9701 18.2029 17.8853 18.0691V22H17.5368Z" fill="white"/>
</svg>
